<mxfile host="app.diagrams.net" agent="Mozilla/5.0 (Windows NT 10.0; Win64; x64) AppleWebKit/537.36 (KHTML, like Gecko) Chrome/135.0.0.0 Safari/537.36 Edg/135.0.0.0" version="26.2.8">
  <diagram name="Pagina-1" id="nYjtSaMc8clSh9dWxDvK">
    <mxGraphModel dx="4144" dy="3481" grid="1" gridSize="10" guides="1" tooltips="1" connect="1" arrows="1" fold="1" page="1" pageScale="1" pageWidth="827" pageHeight="1169" math="0" shadow="0">
      <root>
        <mxCell id="0" />
        <mxCell id="1" parent="0" />
        <mxCell id="jSMgkDj7wUGv6F-tRbi1-3" value="" style="edgeStyle=orthogonalEdgeStyle;rounded=0;orthogonalLoop=1;jettySize=auto;html=1;" edge="1" parent="1" source="jSMgkDj7wUGv6F-tRbi1-1" target="jSMgkDj7wUGv6F-tRbi1-2">
          <mxGeometry relative="1" as="geometry" />
        </mxCell>
        <mxCell id="jSMgkDj7wUGv6F-tRbi1-1" value="registeren/ inloggen" style="ellipse;whiteSpace=wrap;html=1;" vertex="1" parent="1">
          <mxGeometry x="60" y="100" width="120" height="50" as="geometry" />
        </mxCell>
        <mxCell id="jSMgkDj7wUGv6F-tRbi1-7" value="" style="edgeStyle=orthogonalEdgeStyle;rounded=0;orthogonalLoop=1;jettySize=auto;html=1;" edge="1" parent="1" source="jSMgkDj7wUGv6F-tRbi1-2" target="jSMgkDj7wUGv6F-tRbi1-6">
          <mxGeometry relative="1" as="geometry" />
        </mxCell>
        <mxCell id="jSMgkDj7wUGv6F-tRbi1-8" style="edgeStyle=orthogonalEdgeStyle;rounded=0;orthogonalLoop=1;jettySize=auto;html=1;entryX=0;entryY=0.313;entryDx=0;entryDy=0;entryPerimeter=0;" edge="1" parent="1" source="jSMgkDj7wUGv6F-tRbi1-2" target="jSMgkDj7wUGv6F-tRbi1-4">
          <mxGeometry relative="1" as="geometry">
            <mxPoint x="190" y="70" as="targetPoint" />
          </mxGeometry>
        </mxCell>
        <mxCell id="jSMgkDj7wUGv6F-tRbi1-9" style="edgeStyle=orthogonalEdgeStyle;rounded=0;orthogonalLoop=1;jettySize=auto;html=1;entryX=0;entryY=0.5;entryDx=0;entryDy=0;" edge="1" parent="1" source="jSMgkDj7wUGv6F-tRbi1-2" target="jSMgkDj7wUGv6F-tRbi1-5">
          <mxGeometry relative="1" as="geometry" />
        </mxCell>
        <mxCell id="jSMgkDj7wUGv6F-tRbi1-2" value="rol" style="ellipse;whiteSpace=wrap;html=1;" vertex="1" parent="1">
          <mxGeometry x="60" y="200" width="120" height="80" as="geometry" />
        </mxCell>
        <mxCell id="jSMgkDj7wUGv6F-tRbi1-79" value="" style="edgeStyle=orthogonalEdgeStyle;rounded=0;orthogonalLoop=1;jettySize=auto;html=1;" edge="1" parent="1" source="jSMgkDj7wUGv6F-tRbi1-4" target="jSMgkDj7wUGv6F-tRbi1-74">
          <mxGeometry relative="1" as="geometry" />
        </mxCell>
        <mxCell id="jSMgkDj7wUGv6F-tRbi1-4" value="leerling" style="ellipse;whiteSpace=wrap;html=1;" vertex="1" parent="1">
          <mxGeometry x="240" y="10" width="120" height="55" as="geometry" />
        </mxCell>
        <mxCell id="jSMgkDj7wUGv6F-tRbi1-59" value="" style="edgeStyle=orthogonalEdgeStyle;rounded=0;orthogonalLoop=1;jettySize=auto;html=1;" edge="1" parent="1" source="jSMgkDj7wUGv6F-tRbi1-5" target="jSMgkDj7wUGv6F-tRbi1-51">
          <mxGeometry relative="1" as="geometry" />
        </mxCell>
        <mxCell id="jSMgkDj7wUGv6F-tRbi1-89" value="" style="edgeStyle=orthogonalEdgeStyle;rounded=0;orthogonalLoop=1;jettySize=auto;html=1;" edge="1" parent="1" source="jSMgkDj7wUGv6F-tRbi1-5" target="jSMgkDj7wUGv6F-tRbi1-87">
          <mxGeometry relative="1" as="geometry" />
        </mxCell>
        <mxCell id="jSMgkDj7wUGv6F-tRbi1-5" value="ingelogd" style="ellipse;whiteSpace=wrap;html=1;" vertex="1" parent="1">
          <mxGeometry x="230" y="800" width="120" height="60" as="geometry" />
        </mxCell>
        <mxCell id="jSMgkDj7wUGv6F-tRbi1-84" value="" style="edgeStyle=orthogonalEdgeStyle;rounded=0;orthogonalLoop=1;jettySize=auto;html=1;" edge="1" parent="1" source="jSMgkDj7wUGv6F-tRbi1-6" target="jSMgkDj7wUGv6F-tRbi1-80">
          <mxGeometry relative="1" as="geometry" />
        </mxCell>
        <mxCell id="jSMgkDj7wUGv6F-tRbi1-6" value="instructeur&amp;nbsp;" style="ellipse;whiteSpace=wrap;html=1;" vertex="1" parent="1">
          <mxGeometry x="260" y="180" width="120" height="60" as="geometry" />
        </mxCell>
        <mxCell id="jSMgkDj7wUGv6F-tRbi1-10" value="les plannen" style="ellipse;whiteSpace=wrap;html=1;" vertex="1" parent="1">
          <mxGeometry x="850" y="-100" width="120" height="80" as="geometry" />
        </mxCell>
        <mxCell id="jSMgkDj7wUGv6F-tRbi1-11" value="profiel inzien en aanpassen" style="ellipse;whiteSpace=wrap;html=1;" vertex="1" parent="1">
          <mxGeometry x="840" y="30" width="120" height="65" as="geometry" />
        </mxCell>
        <mxCell id="jSMgkDj7wUGv6F-tRbi1-12" value="ophaallocatie toevoegen" style="ellipse;whiteSpace=wrap;html=1;" vertex="1" parent="1">
          <mxGeometry x="1060" y="75" width="120" height="80" as="geometry" />
        </mxCell>
        <mxCell id="jSMgkDj7wUGv6F-tRbi1-13" value="opmerkingen toevoegen" style="ellipse;whiteSpace=wrap;html=1;" vertex="1" parent="1">
          <mxGeometry x="1100" y="-130" width="120" height="80" as="geometry" />
        </mxCell>
        <mxCell id="jSMgkDj7wUGv6F-tRbi1-24" style="edgeStyle=orthogonalEdgeStyle;rounded=0;orthogonalLoop=1;jettySize=auto;html=1;entryX=0;entryY=0.5;entryDx=0;entryDy=0;" edge="1" parent="1" source="jSMgkDj7wUGv6F-tRbi1-14" target="jSMgkDj7wUGv6F-tRbi1-16">
          <mxGeometry relative="1" as="geometry" />
        </mxCell>
        <mxCell id="jSMgkDj7wUGv6F-tRbi1-14" value="lesrooster zien" style="ellipse;whiteSpace=wrap;html=1;" vertex="1" parent="1">
          <mxGeometry x="1290" y="-90" width="120" height="80" as="geometry" />
        </mxCell>
        <mxCell id="jSMgkDj7wUGv6F-tRbi1-15" value="mededeling voor leerlingen zien" style="ellipse;whiteSpace=wrap;html=1;" vertex="1" parent="1">
          <mxGeometry x="860" y="140" width="120" height="80" as="geometry" />
        </mxCell>
        <mxCell id="jSMgkDj7wUGv6F-tRbi1-16" value="les annuleren" style="ellipse;whiteSpace=wrap;html=1;" vertex="1" parent="1">
          <mxGeometry x="1440" y="-110" width="120" height="80" as="geometry" />
        </mxCell>
        <mxCell id="jSMgkDj7wUGv6F-tRbi1-20" style="edgeStyle=orthogonalEdgeStyle;rounded=0;orthogonalLoop=1;jettySize=auto;html=1;entryX=0.188;entryY=0.071;entryDx=0;entryDy=0;entryPerimeter=0;" edge="1" parent="1" source="jSMgkDj7wUGv6F-tRbi1-10" target="jSMgkDj7wUGv6F-tRbi1-12">
          <mxGeometry relative="1" as="geometry" />
        </mxCell>
        <mxCell id="jSMgkDj7wUGv6F-tRbi1-21" style="edgeStyle=orthogonalEdgeStyle;rounded=0;orthogonalLoop=1;jettySize=auto;html=1;entryX=0;entryY=0.625;entryDx=0;entryDy=0;entryPerimeter=0;" edge="1" parent="1" source="jSMgkDj7wUGv6F-tRbi1-10" target="jSMgkDj7wUGv6F-tRbi1-13">
          <mxGeometry relative="1" as="geometry" />
        </mxCell>
        <mxCell id="jSMgkDj7wUGv6F-tRbi1-22" style="edgeStyle=orthogonalEdgeStyle;rounded=0;orthogonalLoop=1;jettySize=auto;html=1;entryX=0.083;entryY=0.839;entryDx=0;entryDy=0;entryPerimeter=0;" edge="1" parent="1" source="jSMgkDj7wUGv6F-tRbi1-12" target="jSMgkDj7wUGv6F-tRbi1-14">
          <mxGeometry relative="1" as="geometry" />
        </mxCell>
        <mxCell id="jSMgkDj7wUGv6F-tRbi1-23" style="edgeStyle=orthogonalEdgeStyle;rounded=0;orthogonalLoop=1;jettySize=auto;html=1;entryX=0.064;entryY=0.289;entryDx=0;entryDy=0;entryPerimeter=0;" edge="1" parent="1" source="jSMgkDj7wUGv6F-tRbi1-13" target="jSMgkDj7wUGv6F-tRbi1-14">
          <mxGeometry relative="1" as="geometry" />
        </mxCell>
        <mxCell id="jSMgkDj7wUGv6F-tRbi1-25" value="achteraf opmerking toevoegen" style="ellipse;whiteSpace=wrap;html=1;" vertex="1" parent="1">
          <mxGeometry x="1060" y="390" width="120" height="80" as="geometry" />
        </mxCell>
        <mxCell id="jSMgkDj7wUGv6F-tRbi1-42" style="edgeStyle=orthogonalEdgeStyle;rounded=0;orthogonalLoop=1;jettySize=auto;html=1;entryX=0.5;entryY=0;entryDx=0;entryDy=0;" edge="1" parent="1" source="jSMgkDj7wUGv6F-tRbi1-26" target="jSMgkDj7wUGv6F-tRbi1-32">
          <mxGeometry relative="1" as="geometry" />
        </mxCell>
        <mxCell id="jSMgkDj7wUGv6F-tRbi1-44" style="edgeStyle=orthogonalEdgeStyle;rounded=0;orthogonalLoop=1;jettySize=auto;html=1;entryX=0;entryY=0;entryDx=0;entryDy=0;" edge="1" parent="1" source="jSMgkDj7wUGv6F-tRbi1-26" target="jSMgkDj7wUGv6F-tRbi1-25">
          <mxGeometry relative="1" as="geometry" />
        </mxCell>
        <mxCell id="jSMgkDj7wUGv6F-tRbi1-26" value="nieuwe les maken bij leerling&amp;nbsp;" style="ellipse;whiteSpace=wrap;html=1;" vertex="1" parent="1">
          <mxGeometry x="900" y="340" width="120" height="80" as="geometry" />
        </mxCell>
        <mxCell id="jSMgkDj7wUGv6F-tRbi1-41" style="edgeStyle=orthogonalEdgeStyle;rounded=0;orthogonalLoop=1;jettySize=auto;html=1;entryX=0;entryY=0.5;entryDx=0;entryDy=0;" edge="1" parent="1" source="jSMgkDj7wUGv6F-tRbi1-27" target="jSMgkDj7wUGv6F-tRbi1-26">
          <mxGeometry relative="1" as="geometry" />
        </mxCell>
        <mxCell id="jSMgkDj7wUGv6F-tRbi1-27" value="dagrooster zien" style="ellipse;whiteSpace=wrap;html=1;" vertex="1" parent="1">
          <mxGeometry x="730" y="340" width="120" height="80" as="geometry" />
        </mxCell>
        <mxCell id="jSMgkDj7wUGv6F-tRbi1-28" value="mededeling voor instructeurs zien" style="ellipse;whiteSpace=wrap;html=1;" vertex="1" parent="1">
          <mxGeometry x="600" y="430" width="120" height="80" as="geometry" />
        </mxCell>
        <mxCell id="jSMgkDj7wUGv6F-tRbi1-47" style="edgeStyle=orthogonalEdgeStyle;rounded=0;orthogonalLoop=1;jettySize=auto;html=1;exitX=1;exitY=0.5;exitDx=0;exitDy=0;" edge="1" parent="1" source="jSMgkDj7wUGv6F-tRbi1-29" target="jSMgkDj7wUGv6F-tRbi1-31">
          <mxGeometry relative="1" as="geometry" />
        </mxCell>
        <mxCell id="jSMgkDj7wUGv6F-tRbi1-29" value="les kunnen aanpassen" style="ellipse;whiteSpace=wrap;html=1;" vertex="1" parent="1">
          <mxGeometry x="1050" y="290" width="120" height="80" as="geometry" />
        </mxCell>
        <mxCell id="jSMgkDj7wUGv6F-tRbi1-30" value="week rooster zien" style="ellipse;whiteSpace=wrap;html=1;" vertex="1" parent="1">
          <mxGeometry x="490" y="330" width="120" height="80" as="geometry" />
        </mxCell>
        <mxCell id="jSMgkDj7wUGv6F-tRbi1-31" value="via formulier ziek melden" style="ellipse;whiteSpace=wrap;html=1;" vertex="1" parent="1">
          <mxGeometry x="1250" y="290" width="120" height="80" as="geometry" />
        </mxCell>
        <mxCell id="jSMgkDj7wUGv6F-tRbi1-46" style="edgeStyle=orthogonalEdgeStyle;rounded=0;orthogonalLoop=1;jettySize=auto;html=1;entryX=0;entryY=0.5;entryDx=0;entryDy=0;" edge="1" parent="1" source="jSMgkDj7wUGv6F-tRbi1-32" target="jSMgkDj7wUGv6F-tRbi1-33">
          <mxGeometry relative="1" as="geometry" />
        </mxCell>
        <mxCell id="jSMgkDj7wUGv6F-tRbi1-32" value="zien welke auto&amp;nbsp;" style="ellipse;whiteSpace=wrap;html=1;" vertex="1" parent="1">
          <mxGeometry x="910" y="490" width="120" height="80" as="geometry" />
        </mxCell>
        <mxCell id="jSMgkDj7wUGv6F-tRbi1-33" value="mankementen aan een auto melden" style="ellipse;whiteSpace=wrap;html=1;" vertex="1" parent="1">
          <mxGeometry x="1090" y="490" width="120" height="80" as="geometry" />
        </mxCell>
        <mxCell id="jSMgkDj7wUGv6F-tRbi1-34" value="kilometerstand van de lesdag voeren" style="ellipse;whiteSpace=wrap;html=1;" vertex="1" parent="1">
          <mxGeometry x="1270" y="500" width="120" height="80" as="geometry" />
        </mxCell>
        <mxCell id="jSMgkDj7wUGv6F-tRbi1-38" style="edgeStyle=orthogonalEdgeStyle;rounded=0;orthogonalLoop=1;jettySize=auto;html=1;" edge="1" parent="1" source="jSMgkDj7wUGv6F-tRbi1-35">
          <mxGeometry relative="1" as="geometry">
            <mxPoint x="550.0000000000002" y="420" as="targetPoint" />
          </mxGeometry>
        </mxCell>
        <mxCell id="jSMgkDj7wUGv6F-tRbi1-39" style="edgeStyle=orthogonalEdgeStyle;rounded=0;orthogonalLoop=1;jettySize=auto;html=1;entryX=0;entryY=1;entryDx=0;entryDy=0;" edge="1" parent="1" source="jSMgkDj7wUGv6F-tRbi1-35" target="jSMgkDj7wUGv6F-tRbi1-28">
          <mxGeometry relative="1" as="geometry" />
        </mxCell>
        <mxCell id="jSMgkDj7wUGv6F-tRbi1-35" value="ja" style="ellipse;whiteSpace=wrap;html=1;" vertex="1" parent="1">
          <mxGeometry x="370" y="440" width="120" height="80" as="geometry" />
        </mxCell>
        <mxCell id="jSMgkDj7wUGv6F-tRbi1-40" style="edgeStyle=orthogonalEdgeStyle;rounded=0;orthogonalLoop=1;jettySize=auto;html=1;entryX=0.055;entryY=0.37;entryDx=0;entryDy=0;entryPerimeter=0;" edge="1" parent="1" source="jSMgkDj7wUGv6F-tRbi1-30" target="jSMgkDj7wUGv6F-tRbi1-27">
          <mxGeometry relative="1" as="geometry" />
        </mxCell>
        <mxCell id="jSMgkDj7wUGv6F-tRbi1-43" style="edgeStyle=orthogonalEdgeStyle;rounded=0;orthogonalLoop=1;jettySize=auto;html=1;exitX=1;exitY=0.5;exitDx=0;exitDy=0;entryX=0.064;entryY=0.823;entryDx=0;entryDy=0;entryPerimeter=0;" edge="1" parent="1" source="jSMgkDj7wUGv6F-tRbi1-26" target="jSMgkDj7wUGv6F-tRbi1-29">
          <mxGeometry relative="1" as="geometry" />
        </mxCell>
        <mxCell id="jSMgkDj7wUGv6F-tRbi1-48" style="edgeStyle=orthogonalEdgeStyle;rounded=0;orthogonalLoop=1;jettySize=auto;html=1;entryX=0.04;entryY=0.37;entryDx=0;entryDy=0;entryPerimeter=0;" edge="1" parent="1" source="jSMgkDj7wUGv6F-tRbi1-33" target="jSMgkDj7wUGv6F-tRbi1-34">
          <mxGeometry relative="1" as="geometry" />
        </mxCell>
        <mxCell id="jSMgkDj7wUGv6F-tRbi1-62" value="" style="edgeStyle=orthogonalEdgeStyle;rounded=0;orthogonalLoop=1;jettySize=auto;html=1;" edge="1" parent="1" source="jSMgkDj7wUGv6F-tRbi1-49" target="jSMgkDj7wUGv6F-tRbi1-53">
          <mxGeometry relative="1" as="geometry" />
        </mxCell>
        <mxCell id="jSMgkDj7wUGv6F-tRbi1-49" value="account maken voor instructeur" style="ellipse;whiteSpace=wrap;html=1;" vertex="1" parent="1">
          <mxGeometry x="570" y="710" width="120" height="80" as="geometry" />
        </mxCell>
        <mxCell id="jSMgkDj7wUGv6F-tRbi1-50" value="algemene voorwaarden publiceren" style="ellipse;whiteSpace=wrap;html=1;" vertex="1" parent="1">
          <mxGeometry x="630" y="500" width="120" height="80" as="geometry" />
        </mxCell>
        <mxCell id="jSMgkDj7wUGv6F-tRbi1-60" value="" style="edgeStyle=orthogonalEdgeStyle;rounded=0;orthogonalLoop=1;jettySize=auto;html=1;" edge="1" parent="1" source="jSMgkDj7wUGv6F-tRbi1-51" target="jSMgkDj7wUGv6F-tRbi1-54">
          <mxGeometry relative="1" as="geometry" />
        </mxCell>
        <mxCell id="jSMgkDj7wUGv6F-tRbi1-61" style="edgeStyle=orthogonalEdgeStyle;rounded=0;orthogonalLoop=1;jettySize=auto;html=1;" edge="1" parent="1" source="jSMgkDj7wUGv6F-tRbi1-51" target="jSMgkDj7wUGv6F-tRbi1-49">
          <mxGeometry relative="1" as="geometry" />
        </mxCell>
        <mxCell id="jSMgkDj7wUGv6F-tRbi1-66" value="" style="edgeStyle=orthogonalEdgeStyle;rounded=0;orthogonalLoop=1;jettySize=auto;html=1;" edge="1" parent="1" source="jSMgkDj7wUGv6F-tRbi1-51" target="jSMgkDj7wUGv6F-tRbi1-58">
          <mxGeometry relative="1" as="geometry" />
        </mxCell>
        <mxCell id="jSMgkDj7wUGv6F-tRbi1-51" value="ja" style="ellipse;whiteSpace=wrap;html=1;" vertex="1" parent="1">
          <mxGeometry x="390" y="790" width="120" height="80" as="geometry" />
        </mxCell>
        <mxCell id="jSMgkDj7wUGv6F-tRbi1-52" value="zorgen website op telefoon werkt&amp;nbsp;" style="ellipse;whiteSpace=wrap;html=1;" vertex="1" parent="1">
          <mxGeometry x="630" y="500" width="120" height="80" as="geometry" />
        </mxCell>
        <mxCell id="jSMgkDj7wUGv6F-tRbi1-53" value="mededeling kunnen aan instructeurs en klanten" style="ellipse;whiteSpace=wrap;html=1;" vertex="1" parent="1">
          <mxGeometry x="760" y="710" width="120" height="80" as="geometry" />
        </mxCell>
        <mxCell id="jSMgkDj7wUGv6F-tRbi1-63" value="" style="edgeStyle=orthogonalEdgeStyle;rounded=0;orthogonalLoop=1;jettySize=auto;html=1;" edge="1" parent="1" source="jSMgkDj7wUGv6F-tRbi1-54" target="jSMgkDj7wUGv6F-tRbi1-56">
          <mxGeometry relative="1" as="geometry" />
        </mxCell>
        <mxCell id="jSMgkDj7wUGv6F-tRbi1-54" value="overzicht van wagenpark&amp;nbsp;" style="ellipse;whiteSpace=wrap;html=1;" vertex="1" parent="1">
          <mxGeometry x="590" y="820" width="120" height="80" as="geometry" />
        </mxCell>
        <mxCell id="jSMgkDj7wUGv6F-tRbi1-65" value="" style="edgeStyle=orthogonalEdgeStyle;rounded=0;orthogonalLoop=1;jettySize=auto;html=1;" edge="1" parent="1" source="jSMgkDj7wUGv6F-tRbi1-55" target="jSMgkDj7wUGv6F-tRbi1-57">
          <mxGeometry relative="1" as="geometry" />
        </mxCell>
        <mxCell id="jSMgkDj7wUGv6F-tRbi1-55" value="auto kunnen toewijzen" style="ellipse;whiteSpace=wrap;html=1;" vertex="1" parent="1">
          <mxGeometry x="940" y="820" width="120" height="80" as="geometry" />
        </mxCell>
        <mxCell id="jSMgkDj7wUGv6F-tRbi1-64" value="" style="edgeStyle=orthogonalEdgeStyle;rounded=0;orthogonalLoop=1;jettySize=auto;html=1;" edge="1" parent="1" source="jSMgkDj7wUGv6F-tRbi1-56" target="jSMgkDj7wUGv6F-tRbi1-55">
          <mxGeometry relative="1" as="geometry" />
        </mxCell>
        <mxCell id="jSMgkDj7wUGv6F-tRbi1-56" value="nieuwe auto toevoegen" style="ellipse;whiteSpace=wrap;html=1;" vertex="1" parent="1">
          <mxGeometry x="760" y="820" width="120" height="80" as="geometry" />
        </mxCell>
        <mxCell id="jSMgkDj7wUGv6F-tRbi1-57" value="auto onderhoud doorgeven" style="ellipse;whiteSpace=wrap;html=1;" vertex="1" parent="1">
          <mxGeometry x="1140" y="820" width="120" height="80" as="geometry" />
        </mxCell>
        <mxCell id="jSMgkDj7wUGv6F-tRbi1-58" value="meerdere lessen samenstellen voor een vaste bedrag" style="ellipse;whiteSpace=wrap;html=1;" vertex="1" parent="1">
          <mxGeometry x="414" y="960" width="120" height="80" as="geometry" />
        </mxCell>
        <mxCell id="jSMgkDj7wUGv6F-tRbi1-69" value="" style="edgeStyle=orthogonalEdgeStyle;rounded=0;orthogonalLoop=1;jettySize=auto;html=1;" edge="1" parent="1" source="jSMgkDj7wUGv6F-tRbi1-67" target="jSMgkDj7wUGv6F-tRbi1-11">
          <mxGeometry relative="1" as="geometry" />
        </mxCell>
        <mxCell id="jSMgkDj7wUGv6F-tRbi1-71" style="edgeStyle=orthogonalEdgeStyle;rounded=0;orthogonalLoop=1;jettySize=auto;html=1;entryX=0;entryY=0.5;entryDx=0;entryDy=0;" edge="1" parent="1" source="jSMgkDj7wUGv6F-tRbi1-67" target="jSMgkDj7wUGv6F-tRbi1-10">
          <mxGeometry relative="1" as="geometry" />
        </mxCell>
        <mxCell id="jSMgkDj7wUGv6F-tRbi1-72" style="edgeStyle=orthogonalEdgeStyle;rounded=0;orthogonalLoop=1;jettySize=auto;html=1;entryX=0;entryY=0.5;entryDx=0;entryDy=0;" edge="1" parent="1" source="jSMgkDj7wUGv6F-tRbi1-67" target="jSMgkDj7wUGv6F-tRbi1-15">
          <mxGeometry relative="1" as="geometry" />
        </mxCell>
        <mxCell id="jSMgkDj7wUGv6F-tRbi1-67" value="ja" style="ellipse;whiteSpace=wrap;html=1;" vertex="1" parent="1">
          <mxGeometry x="610" y="-40" width="120" height="80" as="geometry" />
        </mxCell>
        <mxCell id="jSMgkDj7wUGv6F-tRbi1-78" value="" style="edgeStyle=orthogonalEdgeStyle;rounded=0;orthogonalLoop=1;jettySize=auto;html=1;" edge="1" parent="1" source="jSMgkDj7wUGv6F-tRbi1-73" target="jSMgkDj7wUGv6F-tRbi1-77">
          <mxGeometry relative="1" as="geometry" />
        </mxCell>
        <mxCell id="jSMgkDj7wUGv6F-tRbi1-73" value="nee" style="ellipse;whiteSpace=wrap;html=1;" vertex="1" parent="1">
          <mxGeometry x="310" y="-210" width="120" height="80" as="geometry" />
        </mxCell>
        <mxCell id="jSMgkDj7wUGv6F-tRbi1-75" value="" style="edgeStyle=orthogonalEdgeStyle;rounded=0;orthogonalLoop=1;jettySize=auto;html=1;" edge="1" parent="1" source="jSMgkDj7wUGv6F-tRbi1-74" target="jSMgkDj7wUGv6F-tRbi1-67">
          <mxGeometry relative="1" as="geometry" />
        </mxCell>
        <mxCell id="jSMgkDj7wUGv6F-tRbi1-76" value="" style="edgeStyle=orthogonalEdgeStyle;rounded=0;orthogonalLoop=1;jettySize=auto;html=1;" edge="1" parent="1" source="jSMgkDj7wUGv6F-tRbi1-74" target="jSMgkDj7wUGv6F-tRbi1-73">
          <mxGeometry relative="1" as="geometry" />
        </mxCell>
        <mxCell id="jSMgkDj7wUGv6F-tRbi1-74" value="ingelogd" style="ellipse;whiteSpace=wrap;html=1;" vertex="1" parent="1">
          <mxGeometry x="413" y="-10" width="120" height="80" as="geometry" />
        </mxCell>
        <mxCell id="jSMgkDj7wUGv6F-tRbi1-77" value="login" style="ellipse;whiteSpace=wrap;html=1;" vertex="1" parent="1">
          <mxGeometry x="580" y="-270" width="120" height="80" as="geometry" />
        </mxCell>
        <mxCell id="jSMgkDj7wUGv6F-tRbi1-82" value="" style="edgeStyle=orthogonalEdgeStyle;rounded=0;orthogonalLoop=1;jettySize=auto;html=1;" edge="1" parent="1" source="jSMgkDj7wUGv6F-tRbi1-80" target="jSMgkDj7wUGv6F-tRbi1-81">
          <mxGeometry relative="1" as="geometry" />
        </mxCell>
        <mxCell id="jSMgkDj7wUGv6F-tRbi1-83" style="edgeStyle=orthogonalEdgeStyle;rounded=0;orthogonalLoop=1;jettySize=auto;html=1;" edge="1" parent="1" source="jSMgkDj7wUGv6F-tRbi1-80" target="jSMgkDj7wUGv6F-tRbi1-35">
          <mxGeometry relative="1" as="geometry" />
        </mxCell>
        <mxCell id="jSMgkDj7wUGv6F-tRbi1-80" value="ingelogd" style="ellipse;whiteSpace=wrap;html=1;" vertex="1" parent="1">
          <mxGeometry x="270" y="300" width="120" height="80" as="geometry" />
        </mxCell>
        <mxCell id="jSMgkDj7wUGv6F-tRbi1-86" value="" style="edgeStyle=orthogonalEdgeStyle;rounded=0;orthogonalLoop=1;jettySize=auto;html=1;" edge="1" parent="1" source="jSMgkDj7wUGv6F-tRbi1-81" target="jSMgkDj7wUGv6F-tRbi1-85">
          <mxGeometry relative="1" as="geometry" />
        </mxCell>
        <mxCell id="jSMgkDj7wUGv6F-tRbi1-81" value="nee" style="ellipse;whiteSpace=wrap;html=1;" vertex="1" parent="1">
          <mxGeometry x="230" y="450" width="120" height="80" as="geometry" />
        </mxCell>
        <mxCell id="jSMgkDj7wUGv6F-tRbi1-85" value="login" style="ellipse;whiteSpace=wrap;html=1;" vertex="1" parent="1">
          <mxGeometry x="240" y="585" width="120" height="80" as="geometry" />
        </mxCell>
        <mxCell id="jSMgkDj7wUGv6F-tRbi1-90" value="" style="edgeStyle=orthogonalEdgeStyle;rounded=0;orthogonalLoop=1;jettySize=auto;html=1;" edge="1" parent="1" source="jSMgkDj7wUGv6F-tRbi1-87" target="jSMgkDj7wUGv6F-tRbi1-88">
          <mxGeometry relative="1" as="geometry" />
        </mxCell>
        <mxCell id="jSMgkDj7wUGv6F-tRbi1-87" value="nee" style="ellipse;whiteSpace=wrap;html=1;" vertex="1" parent="1">
          <mxGeometry x="230" y="900" width="120" height="80" as="geometry" />
        </mxCell>
        <mxCell id="jSMgkDj7wUGv6F-tRbi1-88" value="login" style="ellipse;whiteSpace=wrap;html=1;" vertex="1" parent="1">
          <mxGeometry x="220" y="1030" width="120" height="80" as="geometry" />
        </mxCell>
      </root>
    </mxGraphModel>
  </diagram>
</mxfile>
